<mxfile host="app.diagrams.net" modified="2024-02-28T11:50:19.774Z" agent="Mozilla/5.0 (Windows NT 10.0; Win64; x64) AppleWebKit/537.36 (KHTML, like Gecko) Chrome/121.0.0.0 Safari/537.36" etag="aJb-KaQSiHHkJYM6RF_k" version="23.1.7" type="device">
  <diagram name="PÃ¡gina-1" id="sVNsKKDES8SkyHKiLYdX">
    <mxGraphModel dx="1434" dy="772" grid="1" gridSize="10" guides="1" tooltips="1" connect="1" arrows="1" fold="1" page="1" pageScale="1" pageWidth="827" pageHeight="1169" math="0" shadow="0">
      <root>
        <mxCell id="0" />
        <mxCell id="1" parent="0" />
        <mxCell id="qr8y9DVa5IbGoocjL2IQ-1" value="Transportadora&lt;br style=&quot;font-size: 14px;&quot;&gt;MER DER Conceitual 1.1" style="text;html=1;align=center;verticalAlign=middle;whiteSpace=wrap;rounded=0;fontStyle=1;fontSize=14;" parent="1" vertex="1">
          <mxGeometry x="323" y="40" width="181" height="40" as="geometry" />
        </mxCell>
        <mxCell id="qr8y9DVa5IbGoocjL2IQ-10" style="rounded=0;orthogonalLoop=1;jettySize=auto;html=1;exitX=0.5;exitY=0;exitDx=0;exitDy=0;entryX=0.5;entryY=1;entryDx=0;entryDy=0;endArrow=none;endFill=0;" parent="1" source="qr8y9DVa5IbGoocjL2IQ-3" target="qr8y9DVa5IbGoocjL2IQ-7" edge="1">
          <mxGeometry relative="1" as="geometry" />
        </mxCell>
        <mxCell id="qr8y9DVa5IbGoocjL2IQ-3" value="Cliente" style="whiteSpace=wrap;html=1;align=center;fillColor=#d5e8d4;strokeColor=#82b366;" parent="1" vertex="1">
          <mxGeometry x="140" y="240" width="100" height="40" as="geometry" />
        </mxCell>
        <mxCell id="qr8y9DVa5IbGoocjL2IQ-4" value="Funcionario" style="whiteSpace=wrap;html=1;align=center;fillColor=#d5e8d4;strokeColor=#82b366;" parent="1" vertex="1">
          <mxGeometry x="610" y="240" width="100" height="40" as="geometry" />
        </mxCell>
        <mxCell id="qr8y9DVa5IbGoocjL2IQ-5" value="idCliente" style="ellipse;whiteSpace=wrap;html=1;align=center;fontStyle=4;fillColor=#fff2cc;strokeColor=#d6b656;" parent="1" vertex="1">
          <mxGeometry x="50" y="190" width="80" height="30" as="geometry" />
        </mxCell>
        <mxCell id="qr8y9DVa5IbGoocjL2IQ-6" value="nome" style="ellipse;whiteSpace=wrap;html=1;align=center;fillColor=#fff2cc;strokeColor=#d6b656;" parent="1" vertex="1">
          <mxGeometry x="80" y="140" width="80" height="30" as="geometry" />
        </mxCell>
        <mxCell id="qr8y9DVa5IbGoocjL2IQ-7" value="endereco" style="ellipse;whiteSpace=wrap;html=1;align=center;fillColor=#fff2cc;strokeColor=#d6b656;" parent="1" vertex="1">
          <mxGeometry x="150" y="110" width="80" height="30" as="geometry" />
        </mxCell>
        <mxCell id="qr8y9DVa5IbGoocjL2IQ-8" value="telefone" style="ellipse;whiteSpace=wrap;html=1;align=center;fillColor=#fff2cc;strokeColor=#d6b656;" parent="1" vertex="1">
          <mxGeometry x="210" y="140" width="80" height="30" as="geometry" />
        </mxCell>
        <mxCell id="qr8y9DVa5IbGoocjL2IQ-9" value="email" style="ellipse;whiteSpace=wrap;html=1;align=center;fillColor=#fff2cc;strokeColor=#d6b656;" parent="1" vertex="1">
          <mxGeometry x="230" y="180" width="80" height="30" as="geometry" />
        </mxCell>
        <mxCell id="qr8y9DVa5IbGoocjL2IQ-11" style="rounded=0;orthogonalLoop=1;jettySize=auto;html=1;exitX=0.5;exitY=0;exitDx=0;exitDy=0;entryX=0.5;entryY=1;entryDx=0;entryDy=0;endArrow=none;endFill=0;" parent="1" source="qr8y9DVa5IbGoocjL2IQ-3" target="qr8y9DVa5IbGoocjL2IQ-6" edge="1">
          <mxGeometry relative="1" as="geometry">
            <mxPoint x="200" y="250" as="sourcePoint" />
            <mxPoint x="200" y="150" as="targetPoint" />
          </mxGeometry>
        </mxCell>
        <mxCell id="qr8y9DVa5IbGoocjL2IQ-12" style="rounded=0;orthogonalLoop=1;jettySize=auto;html=1;exitX=0.25;exitY=0;exitDx=0;exitDy=0;entryX=0.5;entryY=1;entryDx=0;entryDy=0;endArrow=none;endFill=0;" parent="1" source="qr8y9DVa5IbGoocjL2IQ-3" target="qr8y9DVa5IbGoocjL2IQ-5" edge="1">
          <mxGeometry relative="1" as="geometry">
            <mxPoint x="210" y="260" as="sourcePoint" />
            <mxPoint x="210" y="160" as="targetPoint" />
          </mxGeometry>
        </mxCell>
        <mxCell id="qr8y9DVa5IbGoocjL2IQ-13" style="rounded=0;orthogonalLoop=1;jettySize=auto;html=1;exitX=0.5;exitY=0;exitDx=0;exitDy=0;entryX=0.5;entryY=1;entryDx=0;entryDy=0;endArrow=none;endFill=0;" parent="1" source="qr8y9DVa5IbGoocjL2IQ-3" target="qr8y9DVa5IbGoocjL2IQ-8" edge="1">
          <mxGeometry relative="1" as="geometry">
            <mxPoint x="220" y="270" as="sourcePoint" />
            <mxPoint x="220" y="170" as="targetPoint" />
          </mxGeometry>
        </mxCell>
        <mxCell id="qr8y9DVa5IbGoocjL2IQ-14" style="rounded=0;orthogonalLoop=1;jettySize=auto;html=1;exitX=0.75;exitY=0;exitDx=0;exitDy=0;entryX=0.5;entryY=1;entryDx=0;entryDy=0;endArrow=none;endFill=0;" parent="1" source="qr8y9DVa5IbGoocjL2IQ-3" target="qr8y9DVa5IbGoocjL2IQ-9" edge="1">
          <mxGeometry relative="1" as="geometry">
            <mxPoint x="230" y="280" as="sourcePoint" />
            <mxPoint x="230" y="180" as="targetPoint" />
          </mxGeometry>
        </mxCell>
        <mxCell id="qr8y9DVa5IbGoocjL2IQ-15" value="idFuncionario" style="ellipse;whiteSpace=wrap;html=1;align=center;fontStyle=4;fillColor=#fff2cc;strokeColor=#d6b656;" parent="1" vertex="1">
          <mxGeometry x="540" y="180" width="80" height="30" as="geometry" />
        </mxCell>
        <mxCell id="qr8y9DVa5IbGoocjL2IQ-16" value="nome" style="ellipse;whiteSpace=wrap;html=1;align=center;fillColor=#fff2cc;strokeColor=#d6b656;" parent="1" vertex="1">
          <mxGeometry x="580" y="140" width="80" height="30" as="geometry" />
        </mxCell>
        <mxCell id="qr8y9DVa5IbGoocjL2IQ-17" value="cargo" style="ellipse;whiteSpace=wrap;html=1;align=center;fillColor=#fff2cc;strokeColor=#d6b656;" parent="1" vertex="1">
          <mxGeometry x="670" y="140" width="80" height="30" as="geometry" />
        </mxCell>
        <mxCell id="qr8y9DVa5IbGoocjL2IQ-18" value="salario" style="ellipse;whiteSpace=wrap;html=1;align=center;fillColor=#fff2cc;strokeColor=#d6b656;" parent="1" vertex="1">
          <mxGeometry x="700" y="180" width="80" height="30" as="geometry" />
        </mxCell>
        <mxCell id="qr8y9DVa5IbGoocjL2IQ-19" style="rounded=0;orthogonalLoop=1;jettySize=auto;html=1;exitX=0.5;exitY=0;exitDx=0;exitDy=0;entryX=0.5;entryY=1;entryDx=0;entryDy=0;endArrow=none;endFill=0;" parent="1" target="qr8y9DVa5IbGoocjL2IQ-17" edge="1">
          <mxGeometry relative="1" as="geometry">
            <mxPoint x="660" y="240" as="sourcePoint" />
          </mxGeometry>
        </mxCell>
        <mxCell id="qr8y9DVa5IbGoocjL2IQ-20" style="rounded=0;orthogonalLoop=1;jettySize=auto;html=1;exitX=0.5;exitY=0;exitDx=0;exitDy=0;entryX=0.5;entryY=1;entryDx=0;entryDy=0;endArrow=none;endFill=0;" parent="1" target="qr8y9DVa5IbGoocjL2IQ-16" edge="1">
          <mxGeometry relative="1" as="geometry">
            <mxPoint x="660" y="240" as="sourcePoint" />
            <mxPoint x="670" y="150" as="targetPoint" />
          </mxGeometry>
        </mxCell>
        <mxCell id="qr8y9DVa5IbGoocjL2IQ-21" style="rounded=0;orthogonalLoop=1;jettySize=auto;html=1;exitX=0.25;exitY=0;exitDx=0;exitDy=0;entryX=0.5;entryY=1;entryDx=0;entryDy=0;endArrow=none;endFill=0;" parent="1" target="qr8y9DVa5IbGoocjL2IQ-15" edge="1">
          <mxGeometry relative="1" as="geometry">
            <mxPoint x="635" y="240" as="sourcePoint" />
            <mxPoint x="680" y="160" as="targetPoint" />
          </mxGeometry>
        </mxCell>
        <mxCell id="qr8y9DVa5IbGoocjL2IQ-22" style="rounded=0;orthogonalLoop=1;jettySize=auto;html=1;exitX=0.5;exitY=0;exitDx=0;exitDy=0;entryX=0.5;entryY=1;entryDx=0;entryDy=0;endArrow=none;endFill=0;" parent="1" target="qr8y9DVa5IbGoocjL2IQ-18" edge="1">
          <mxGeometry relative="1" as="geometry">
            <mxPoint x="660" y="240" as="sourcePoint" />
            <mxPoint x="690" y="170" as="targetPoint" />
          </mxGeometry>
        </mxCell>
        <mxCell id="qr8y9DVa5IbGoocjL2IQ-23" value="Veiculo" style="whiteSpace=wrap;html=1;align=center;fillColor=#d5e8d4;strokeColor=#82b366;" parent="1" vertex="1">
          <mxGeometry x="169" y="550" width="100" height="40" as="geometry" />
        </mxCell>
        <mxCell id="qr8y9DVa5IbGoocjL2IQ-24" value="placa" style="ellipse;whiteSpace=wrap;html=1;align=center;fontStyle=4;fillColor=#fff2cc;strokeColor=#d6b656;" parent="1" vertex="1">
          <mxGeometry x="130" y="630" width="80" height="30" as="geometry" />
        </mxCell>
        <mxCell id="qr8y9DVa5IbGoocjL2IQ-26" style="rounded=0;orthogonalLoop=1;jettySize=auto;html=1;exitX=0.5;exitY=1;exitDx=0;exitDy=0;entryX=0.5;entryY=0;entryDx=0;entryDy=0;endArrow=none;endFill=0;" parent="1" source="qr8y9DVa5IbGoocjL2IQ-23" target="qr8y9DVa5IbGoocjL2IQ-24" edge="1">
          <mxGeometry relative="1" as="geometry">
            <mxPoint x="176.5" y="655" as="sourcePoint" />
            <mxPoint x="221.5" y="575" as="targetPoint" />
          </mxGeometry>
        </mxCell>
        <mxCell id="qr8y9DVa5IbGoocjL2IQ-27" value="modelo" style="ellipse;whiteSpace=wrap;html=1;align=center;fillColor=#fff2cc;strokeColor=#d6b656;" parent="1" vertex="1">
          <mxGeometry x="179" y="660" width="80" height="30" as="geometry" />
        </mxCell>
        <mxCell id="qr8y9DVa5IbGoocjL2IQ-28" value="capacidade" style="ellipse;whiteSpace=wrap;html=1;align=center;fillColor=#fff2cc;strokeColor=#d6b656;" parent="1" vertex="1">
          <mxGeometry x="230" y="630" width="80" height="30" as="geometry" />
        </mxCell>
        <mxCell id="qr8y9DVa5IbGoocjL2IQ-30" style="rounded=0;orthogonalLoop=1;jettySize=auto;html=1;exitX=0.5;exitY=1;exitDx=0;exitDy=0;entryX=0.5;entryY=0;entryDx=0;entryDy=0;endArrow=none;endFill=0;fontStyle=1" parent="1" source="qr8y9DVa5IbGoocjL2IQ-23" target="qr8y9DVa5IbGoocjL2IQ-27" edge="1">
          <mxGeometry relative="1" as="geometry">
            <mxPoint x="214" y="610" as="sourcePoint" />
            <mxPoint x="149" y="660" as="targetPoint" />
          </mxGeometry>
        </mxCell>
        <mxCell id="qr8y9DVa5IbGoocjL2IQ-31" style="rounded=0;orthogonalLoop=1;jettySize=auto;html=1;exitX=0.5;exitY=1;exitDx=0;exitDy=0;entryX=0.5;entryY=0;entryDx=0;entryDy=0;endArrow=none;endFill=0;" parent="1" source="qr8y9DVa5IbGoocjL2IQ-23" target="qr8y9DVa5IbGoocjL2IQ-28" edge="1">
          <mxGeometry relative="1" as="geometry">
            <mxPoint x="224" y="620" as="sourcePoint" />
            <mxPoint x="159" y="670" as="targetPoint" />
          </mxGeometry>
        </mxCell>
        <mxCell id="qr8y9DVa5IbGoocjL2IQ-32" value="Rota" style="whiteSpace=wrap;html=1;align=center;fillColor=#d5e8d4;strokeColor=#82b366;" parent="1" vertex="1">
          <mxGeometry x="610" y="550" width="100" height="40" as="geometry" />
        </mxCell>
        <mxCell id="qr8y9DVa5IbGoocjL2IQ-33" value="idRota" style="ellipse;whiteSpace=wrap;html=1;align=center;fontStyle=4;fillColor=#fff2cc;strokeColor=#d6b656;" parent="1" vertex="1">
          <mxGeometry x="535" y="630" width="80" height="30" as="geometry" />
        </mxCell>
        <mxCell id="qr8y9DVa5IbGoocjL2IQ-34" value="origem" style="ellipse;whiteSpace=wrap;html=1;align=center;fillColor=#fff2cc;strokeColor=#d6b656;" parent="1" vertex="1">
          <mxGeometry x="570" y="680" width="80" height="30" as="geometry" />
        </mxCell>
        <mxCell id="qr8y9DVa5IbGoocjL2IQ-35" style="rounded=0;orthogonalLoop=1;jettySize=auto;html=1;exitX=0.25;exitY=1;exitDx=0;exitDy=0;entryX=0.5;entryY=0;entryDx=0;entryDy=0;endArrow=none;endFill=0;" parent="1" source="qr8y9DVa5IbGoocjL2IQ-32" target="qr8y9DVa5IbGoocjL2IQ-33" edge="1">
          <mxGeometry relative="1" as="geometry">
            <mxPoint x="617.5" y="655" as="sourcePoint" />
            <mxPoint x="570" y="640" as="targetPoint" />
          </mxGeometry>
        </mxCell>
        <mxCell id="qr8y9DVa5IbGoocjL2IQ-36" value="destino" style="ellipse;whiteSpace=wrap;html=1;align=center;fillColor=#fff2cc;strokeColor=#d6b656;" parent="1" vertex="1">
          <mxGeometry x="660" y="680" width="80" height="30" as="geometry" />
        </mxCell>
        <mxCell id="qr8y9DVa5IbGoocjL2IQ-38" style="rounded=0;orthogonalLoop=1;jettySize=auto;html=1;exitX=0.5;exitY=1;exitDx=0;exitDy=0;entryX=0.5;entryY=0;entryDx=0;entryDy=0;endArrow=none;endFill=0;" parent="1" source="qr8y9DVa5IbGoocjL2IQ-32" target="qr8y9DVa5IbGoocjL2IQ-34" edge="1">
          <mxGeometry relative="1" as="geometry">
            <mxPoint x="645" y="600" as="sourcePoint" />
            <mxPoint x="580" y="650" as="targetPoint" />
          </mxGeometry>
        </mxCell>
        <mxCell id="qr8y9DVa5IbGoocjL2IQ-39" style="rounded=0;orthogonalLoop=1;jettySize=auto;html=1;exitX=0.5;exitY=1;exitDx=0;exitDy=0;entryX=0.5;entryY=0;entryDx=0;entryDy=0;endArrow=none;endFill=0;fontStyle=1" parent="1" source="qr8y9DVa5IbGoocjL2IQ-32" target="qr8y9DVa5IbGoocjL2IQ-36" edge="1">
          <mxGeometry relative="1" as="geometry">
            <mxPoint x="655" y="610" as="sourcePoint" />
            <mxPoint x="590" y="660" as="targetPoint" />
          </mxGeometry>
        </mxCell>
        <mxCell id="qr8y9DVa5IbGoocjL2IQ-40" style="rounded=0;orthogonalLoop=1;jettySize=auto;html=1;exitX=0.75;exitY=1;exitDx=0;exitDy=0;entryX=0.5;entryY=0;entryDx=0;entryDy=0;endArrow=none;endFill=0;" parent="1" source="qr8y9DVa5IbGoocjL2IQ-32" target="qr8y9DVa5IbGoocjL2IQ-41" edge="1">
          <mxGeometry relative="1" as="geometry">
            <mxPoint x="665" y="620" as="sourcePoint" />
            <mxPoint x="740" y="640" as="targetPoint" />
          </mxGeometry>
        </mxCell>
        <mxCell id="qr8y9DVa5IbGoocjL2IQ-41" value="distancia" style="ellipse;whiteSpace=wrap;html=1;align=center;dashed=1;fillColor=#fff2cc;strokeColor=#d6b656;" parent="1" vertex="1">
          <mxGeometry x="700" y="640" width="80" height="30" as="geometry" />
        </mxCell>
        <mxCell id="qr8y9DVa5IbGoocjL2IQ-42" value="Entrega" style="whiteSpace=wrap;html=1;align=center;fillColor=#d5e8d4;strokeColor=#82b366;" parent="1" vertex="1">
          <mxGeometry x="400" y="380" width="100" height="40" as="geometry" />
        </mxCell>
        <mxCell id="qr8y9DVa5IbGoocjL2IQ-43" value="idEntrega" style="ellipse;whiteSpace=wrap;html=1;align=center;fontStyle=4;fillColor=#fff2cc;strokeColor=#d6b656;" parent="1" vertex="1">
          <mxGeometry x="320" y="470" width="80" height="30" as="geometry" />
        </mxCell>
        <mxCell id="qr8y9DVa5IbGoocjL2IQ-44" value="inicio" style="ellipse;whiteSpace=wrap;html=1;align=center;fillColor=#fff2cc;strokeColor=#d6b656;" parent="1" vertex="1">
          <mxGeometry x="350" y="510" width="80" height="30" as="geometry" />
        </mxCell>
        <mxCell id="qr8y9DVa5IbGoocjL2IQ-45" style="rounded=0;orthogonalLoop=1;jettySize=auto;html=1;exitX=0.25;exitY=1;exitDx=0;exitDy=0;entryX=0.5;entryY=0;entryDx=0;entryDy=0;endArrow=none;endFill=0;" parent="1" source="qr8y9DVa5IbGoocjL2IQ-42" target="qr8y9DVa5IbGoocjL2IQ-43" edge="1">
          <mxGeometry relative="1" as="geometry">
            <mxPoint x="407.5" y="485" as="sourcePoint" />
            <mxPoint x="452.5" y="405" as="targetPoint" />
          </mxGeometry>
        </mxCell>
        <mxCell id="qr8y9DVa5IbGoocjL2IQ-46" value="fim" style="ellipse;whiteSpace=wrap;html=1;align=center;fillColor=#fff2cc;strokeColor=#d6b656;" parent="1" vertex="1">
          <mxGeometry x="489" y="500" width="80" height="30" as="geometry" />
        </mxCell>
        <mxCell id="qr8y9DVa5IbGoocjL2IQ-47" style="rounded=0;orthogonalLoop=1;jettySize=auto;html=1;exitX=0.5;exitY=1;exitDx=0;exitDy=0;entryX=0.5;entryY=0;entryDx=0;entryDy=0;endArrow=none;endFill=0;" parent="1" source="qr8y9DVa5IbGoocjL2IQ-42" target="qr8y9DVa5IbGoocjL2IQ-44" edge="1">
          <mxGeometry relative="1" as="geometry">
            <mxPoint x="435" y="430" as="sourcePoint" />
            <mxPoint x="370" y="480" as="targetPoint" />
          </mxGeometry>
        </mxCell>
        <mxCell id="qr8y9DVa5IbGoocjL2IQ-48" style="rounded=0;orthogonalLoop=1;jettySize=auto;html=1;exitX=0.5;exitY=1;exitDx=0;exitDy=0;entryX=0.5;entryY=0;entryDx=0;entryDy=0;endArrow=none;endFill=0;fontStyle=1" parent="1" source="qr8y9DVa5IbGoocjL2IQ-42" target="qr8y9DVa5IbGoocjL2IQ-46" edge="1">
          <mxGeometry relative="1" as="geometry">
            <mxPoint x="445" y="440" as="sourcePoint" />
            <mxPoint x="380" y="490" as="targetPoint" />
          </mxGeometry>
        </mxCell>
        <mxCell id="qr8y9DVa5IbGoocjL2IQ-49" style="rounded=0;orthogonalLoop=1;jettySize=auto;html=1;exitX=0.75;exitY=1;exitDx=0;exitDy=0;entryX=0.5;entryY=0;entryDx=0;entryDy=0;endArrow=none;endFill=0;" parent="1" source="qr8y9DVa5IbGoocjL2IQ-42" target="qr8y9DVa5IbGoocjL2IQ-50" edge="1">
          <mxGeometry relative="1" as="geometry">
            <mxPoint x="455" y="450" as="sourcePoint" />
            <mxPoint x="530" y="470" as="targetPoint" />
          </mxGeometry>
        </mxCell>
        <mxCell id="qr8y9DVa5IbGoocjL2IQ-50" value="status" style="ellipse;whiteSpace=wrap;html=1;align=center;dashed=1;fillColor=#fff2cc;strokeColor=#d6b656;" parent="1" vertex="1">
          <mxGeometry x="510" y="460" width="80" height="30" as="geometry" />
        </mxCell>
        <mxCell id="qr8y9DVa5IbGoocjL2IQ-51" value="&lt;span style=&quot;border-bottom: 1px dotted&quot;&gt;idRota&lt;/span&gt;" style="ellipse;whiteSpace=wrap;html=1;align=center;fillColor=#fff2cc;strokeColor=#d6b656;" parent="1" vertex="1">
          <mxGeometry x="489" y="290" width="80" height="30" as="geometry" />
        </mxCell>
        <mxCell id="qr8y9DVa5IbGoocjL2IQ-53" value="&lt;span style=&quot;border-bottom: 1px dotted&quot;&gt;motorista&lt;/span&gt;" style="ellipse;whiteSpace=wrap;html=1;align=center;fillColor=#fff2cc;strokeColor=#d6b656;" parent="1" vertex="1">
          <mxGeometry x="409" y="240" width="80" height="30" as="geometry" />
        </mxCell>
        <mxCell id="qr8y9DVa5IbGoocjL2IQ-54" value="&lt;span style=&quot;border-bottom: 1px dotted&quot;&gt;idVeiculo&lt;/span&gt;" style="ellipse;whiteSpace=wrap;html=1;align=center;fillColor=#fff2cc;strokeColor=#d6b656;" parent="1" vertex="1">
          <mxGeometry x="320" y="290" width="80" height="30" as="geometry" />
        </mxCell>
        <mxCell id="qr8y9DVa5IbGoocjL2IQ-55" style="rounded=0;orthogonalLoop=1;jettySize=auto;html=1;exitX=0.25;exitY=0;exitDx=0;exitDy=0;entryX=0.5;entryY=1;entryDx=0;entryDy=0;endArrow=none;endFill=0;" parent="1" source="qr8y9DVa5IbGoocjL2IQ-42" target="qr8y9DVa5IbGoocjL2IQ-54" edge="1">
          <mxGeometry relative="1" as="geometry">
            <mxPoint x="435" y="430" as="sourcePoint" />
            <mxPoint x="370" y="480" as="targetPoint" />
          </mxGeometry>
        </mxCell>
        <mxCell id="qr8y9DVa5IbGoocjL2IQ-56" style="rounded=0;orthogonalLoop=1;jettySize=auto;html=1;exitX=0.5;exitY=0;exitDx=0;exitDy=0;entryX=0.5;entryY=1;entryDx=0;entryDy=0;endArrow=none;endFill=0;" parent="1" source="qr8y9DVa5IbGoocjL2IQ-42" target="qr8y9DVa5IbGoocjL2IQ-53" edge="1">
          <mxGeometry relative="1" as="geometry">
            <mxPoint x="435" y="390" as="sourcePoint" />
            <mxPoint x="370" y="330" as="targetPoint" />
          </mxGeometry>
        </mxCell>
        <mxCell id="qr8y9DVa5IbGoocjL2IQ-57" style="rounded=0;orthogonalLoop=1;jettySize=auto;html=1;exitX=0.75;exitY=0;exitDx=0;exitDy=0;entryX=0.5;entryY=1;entryDx=0;entryDy=0;endArrow=none;endFill=0;" parent="1" source="qr8y9DVa5IbGoocjL2IQ-42" target="qr8y9DVa5IbGoocjL2IQ-51" edge="1">
          <mxGeometry relative="1" as="geometry">
            <mxPoint x="445" y="400" as="sourcePoint" />
            <mxPoint x="380" y="340" as="targetPoint" />
          </mxGeometry>
        </mxCell>
        <mxCell id="qr8y9DVa5IbGoocjL2IQ-58" value="Pedido" style="whiteSpace=wrap;html=1;align=center;fillColor=#d5e8d4;strokeColor=#82b366;" parent="1" vertex="1">
          <mxGeometry x="180" y="380" width="100" height="40" as="geometry" />
        </mxCell>
        <mxCell id="qr8y9DVa5IbGoocjL2IQ-59" value="idPedido" style="ellipse;whiteSpace=wrap;html=1;align=center;fontStyle=4;fillColor=#fff2cc;strokeColor=#d6b656;" parent="1" vertex="1">
          <mxGeometry x="90" y="440" width="80" height="30" as="geometry" />
        </mxCell>
        <mxCell id="qr8y9DVa5IbGoocjL2IQ-60" value="dataPedido" style="ellipse;whiteSpace=wrap;html=1;align=center;fillColor=#fff2cc;strokeColor=#d6b656;" parent="1" vertex="1">
          <mxGeometry x="160" y="470" width="80" height="30" as="geometry" />
        </mxCell>
        <mxCell id="qr8y9DVa5IbGoocjL2IQ-61" value="valor" style="ellipse;whiteSpace=wrap;html=1;align=center;fillColor=#fff2cc;strokeColor=#d6b656;" parent="1" vertex="1">
          <mxGeometry x="240" y="460" width="70" height="30" as="geometry" />
        </mxCell>
        <mxCell id="qr8y9DVa5IbGoocjL2IQ-62" value="&lt;span style=&quot;border-bottom: 1px dotted&quot;&gt;idCliente&lt;/span&gt;" style="ellipse;whiteSpace=wrap;html=1;align=center;fillColor=#fff2cc;strokeColor=#d6b656;" parent="1" vertex="1">
          <mxGeometry x="170" y="300" width="80" height="30" as="geometry" />
        </mxCell>
        <mxCell id="qr8y9DVa5IbGoocjL2IQ-63" value="&lt;span style=&quot;border-bottom: 1px dotted&quot;&gt;idEntrega&lt;/span&gt;" style="ellipse;whiteSpace=wrap;html=1;align=center;fillColor=#fff2cc;strokeColor=#d6b656;" parent="1" vertex="1">
          <mxGeometry x="240" y="320" width="80" height="30" as="geometry" />
        </mxCell>
        <mxCell id="qr8y9DVa5IbGoocjL2IQ-64" style="rounded=0;orthogonalLoop=1;jettySize=auto;html=1;exitX=0.5;exitY=1;exitDx=0;exitDy=0;entryX=0.5;entryY=0;entryDx=0;entryDy=0;endArrow=none;endFill=0;" parent="1" source="qr8y9DVa5IbGoocjL2IQ-63" target="qr8y9DVa5IbGoocjL2IQ-58" edge="1">
          <mxGeometry relative="1" as="geometry">
            <mxPoint x="175" y="590" as="sourcePoint" />
            <mxPoint x="110" y="640" as="targetPoint" />
          </mxGeometry>
        </mxCell>
        <mxCell id="qr8y9DVa5IbGoocjL2IQ-65" style="rounded=0;orthogonalLoop=1;jettySize=auto;html=1;exitX=0.5;exitY=1;exitDx=0;exitDy=0;entryX=0.5;entryY=0;entryDx=0;entryDy=0;endArrow=none;endFill=0;" parent="1" source="qr8y9DVa5IbGoocjL2IQ-62" target="qr8y9DVa5IbGoocjL2IQ-58" edge="1">
          <mxGeometry relative="1" as="geometry">
            <mxPoint x="320" y="360" as="sourcePoint" />
            <mxPoint x="240" y="390" as="targetPoint" />
          </mxGeometry>
        </mxCell>
        <mxCell id="qr8y9DVa5IbGoocjL2IQ-66" style="rounded=0;orthogonalLoop=1;jettySize=auto;html=1;exitX=0.5;exitY=1;exitDx=0;exitDy=0;entryX=1;entryY=0;entryDx=0;entryDy=0;endArrow=none;endFill=0;" parent="1" source="qr8y9DVa5IbGoocjL2IQ-58" target="qr8y9DVa5IbGoocjL2IQ-59" edge="1">
          <mxGeometry relative="1" as="geometry">
            <mxPoint x="330" y="370" as="sourcePoint" />
            <mxPoint x="250" y="400" as="targetPoint" />
          </mxGeometry>
        </mxCell>
        <mxCell id="qr8y9DVa5IbGoocjL2IQ-67" style="rounded=0;orthogonalLoop=1;jettySize=auto;html=1;exitX=0.5;exitY=1;exitDx=0;exitDy=0;entryX=0.5;entryY=0;entryDx=0;entryDy=0;endArrow=none;endFill=0;" parent="1" source="qr8y9DVa5IbGoocjL2IQ-58" target="qr8y9DVa5IbGoocjL2IQ-60" edge="1">
          <mxGeometry relative="1" as="geometry">
            <mxPoint x="340" y="380" as="sourcePoint" />
            <mxPoint x="260" y="410" as="targetPoint" />
          </mxGeometry>
        </mxCell>
        <mxCell id="qr8y9DVa5IbGoocjL2IQ-68" style="rounded=0;orthogonalLoop=1;jettySize=auto;html=1;exitX=0.5;exitY=1;exitDx=0;exitDy=0;entryX=0.5;entryY=0;entryDx=0;entryDy=0;endArrow=none;endFill=0;" parent="1" source="qr8y9DVa5IbGoocjL2IQ-58" target="qr8y9DVa5IbGoocjL2IQ-61" edge="1">
          <mxGeometry relative="1" as="geometry">
            <mxPoint x="350" y="390" as="sourcePoint" />
            <mxPoint x="270" y="420" as="targetPoint" />
          </mxGeometry>
        </mxCell>
        <mxCell id="qr8y9DVa5IbGoocjL2IQ-70" value="1" style="edgeStyle=orthogonalEdgeStyle;rounded=0;orthogonalLoop=1;jettySize=auto;html=1;exitX=0.5;exitY=0;exitDx=0;exitDy=0;entryX=0;entryY=0.5;entryDx=0;entryDy=0;endArrow=none;endFill=0;" parent="1" source="qr8y9DVa5IbGoocjL2IQ-69" target="qr8y9DVa5IbGoocjL2IQ-3" edge="1">
          <mxGeometry x="0.7895" y="10" relative="1" as="geometry">
            <mxPoint as="offset" />
          </mxGeometry>
        </mxCell>
        <mxCell id="qr8y9DVa5IbGoocjL2IQ-71" value="N" style="edgeStyle=orthogonalEdgeStyle;rounded=0;orthogonalLoop=1;jettySize=auto;html=1;exitX=0.5;exitY=1;exitDx=0;exitDy=0;entryX=0;entryY=0.5;entryDx=0;entryDy=0;endArrow=none;endFill=0;" parent="1" source="qr8y9DVa5IbGoocjL2IQ-69" target="qr8y9DVa5IbGoocjL2IQ-58" edge="1">
          <mxGeometry x="0.8519" y="10" relative="1" as="geometry">
            <mxPoint as="offset" />
          </mxGeometry>
        </mxCell>
        <mxCell id="qr8y9DVa5IbGoocjL2IQ-69" value="faz" style="shape=rhombus;perimeter=rhombusPerimeter;whiteSpace=wrap;html=1;align=center;fillColor=#f8cecc;strokeColor=#b85450;" parent="1" vertex="1">
          <mxGeometry x="60" y="310" width="70" height="40" as="geometry" />
        </mxCell>
        <mxCell id="qr8y9DVa5IbGoocjL2IQ-72" value="1" style="edgeStyle=orthogonalEdgeStyle;rounded=0;orthogonalLoop=1;jettySize=auto;html=1;exitX=0.5;exitY=0;exitDx=0;exitDy=0;entryX=0.5;entryY=1;entryDx=0;entryDy=0;endArrow=none;endFill=0;" parent="1" source="qr8y9DVa5IbGoocjL2IQ-74" target="qr8y9DVa5IbGoocjL2IQ-4" edge="1">
          <mxGeometry x="0.6" y="10" relative="1" as="geometry">
            <mxPoint x="725" y="320" as="targetPoint" />
            <mxPoint as="offset" />
          </mxGeometry>
        </mxCell>
        <mxCell id="qr8y9DVa5IbGoocjL2IQ-73" value="N" style="edgeStyle=orthogonalEdgeStyle;rounded=0;orthogonalLoop=1;jettySize=auto;html=1;exitX=0.5;exitY=1;exitDx=0;exitDy=0;entryX=1;entryY=0.5;entryDx=0;entryDy=0;endArrow=none;endFill=0;" parent="1" source="qr8y9DVa5IbGoocjL2IQ-74" target="qr8y9DVa5IbGoocjL2IQ-42" edge="1">
          <mxGeometry x="0.8519" y="10" relative="1" as="geometry">
            <mxPoint x="765" y="460" as="targetPoint" />
            <mxPoint as="offset" />
          </mxGeometry>
        </mxCell>
        <mxCell id="qr8y9DVa5IbGoocjL2IQ-74" value="dirige" style="shape=rhombus;perimeter=rhombusPerimeter;whiteSpace=wrap;html=1;align=center;fillColor=#f8cecc;strokeColor=#b85450;" parent="1" vertex="1">
          <mxGeometry x="625" y="330" width="70" height="40" as="geometry" />
        </mxCell>
        <mxCell id="qr8y9DVa5IbGoocjL2IQ-75" value="1" style="edgeStyle=orthogonalEdgeStyle;rounded=0;orthogonalLoop=1;jettySize=auto;html=1;exitX=1;exitY=0.5;exitDx=0;exitDy=0;entryX=0;entryY=0.5;entryDx=0;entryDy=0;endArrow=none;endFill=0;" parent="1" source="qr8y9DVa5IbGoocjL2IQ-77" target="qr8y9DVa5IbGoocjL2IQ-32" edge="1">
          <mxGeometry x="0.6" y="10" relative="1" as="geometry">
            <mxPoint x="476.5" y="560" as="targetPoint" />
            <mxPoint as="offset" />
          </mxGeometry>
        </mxCell>
        <mxCell id="qr8y9DVa5IbGoocjL2IQ-76" value="N" style="edgeStyle=orthogonalEdgeStyle;rounded=0;orthogonalLoop=1;jettySize=auto;html=1;exitX=0.5;exitY=0;exitDx=0;exitDy=0;entryX=0.5;entryY=1;entryDx=0;entryDy=0;endArrow=none;endFill=0;" parent="1" source="qr8y9DVa5IbGoocjL2IQ-77" target="qr8y9DVa5IbGoocjL2IQ-42" edge="1">
          <mxGeometry x="0.3846" y="10" relative="1" as="geometry">
            <mxPoint x="316.5" y="680" as="targetPoint" />
            <mxPoint as="offset" />
          </mxGeometry>
        </mxCell>
        <mxCell id="qr8y9DVa5IbGoocjL2IQ-77" value="dirige" style="shape=rhombus;perimeter=rhombusPerimeter;whiteSpace=wrap;html=1;align=center;fillColor=#f8cecc;strokeColor=#b85450;" parent="1" vertex="1">
          <mxGeometry x="415" y="550" width="70" height="40" as="geometry" />
        </mxCell>
        <mxCell id="qr8y9DVa5IbGoocjL2IQ-78" value="possui" style="shape=rhombus;perimeter=rhombusPerimeter;whiteSpace=wrap;html=1;align=center;fillColor=#f8cecc;strokeColor=#b85450;" parent="1" vertex="1">
          <mxGeometry x="300" y="380" width="70" height="40" as="geometry" />
        </mxCell>
        <mxCell id="qr8y9DVa5IbGoocjL2IQ-79" value="1" style="edgeStyle=orthogonalEdgeStyle;rounded=0;orthogonalLoop=1;jettySize=auto;html=1;exitX=0;exitY=0.5;exitDx=0;exitDy=0;entryX=1;entryY=0.5;entryDx=0;entryDy=0;endArrow=none;endFill=0;" parent="1" source="qr8y9DVa5IbGoocjL2IQ-42" target="qr8y9DVa5IbGoocjL2IQ-78" edge="1">
          <mxGeometry x="-0.3333" y="-10" relative="1" as="geometry">
            <mxPoint x="105" y="320" as="sourcePoint" />
            <mxPoint x="150" y="270" as="targetPoint" />
            <mxPoint as="offset" />
          </mxGeometry>
        </mxCell>
        <mxCell id="qr8y9DVa5IbGoocjL2IQ-80" value="1" style="edgeStyle=orthogonalEdgeStyle;rounded=0;orthogonalLoop=1;jettySize=auto;html=1;exitX=1;exitY=0.5;exitDx=0;exitDy=0;entryX=0;entryY=0.5;entryDx=0;entryDy=0;endArrow=none;endFill=0;" parent="1" source="qr8y9DVa5IbGoocjL2IQ-23" target="qr8y9DVa5IbGoocjL2IQ-77" edge="1">
          <mxGeometry x="-0.7123" y="10" relative="1" as="geometry">
            <mxPoint x="495" y="580" as="sourcePoint" />
            <mxPoint x="620" y="580" as="targetPoint" />
            <mxPoint as="offset" />
          </mxGeometry>
        </mxCell>
        <mxCell id="qr8y9DVa5IbGoocjL2IQ-81" value="N" style="edgeStyle=orthogonalEdgeStyle;rounded=0;orthogonalLoop=1;jettySize=auto;html=1;exitX=1;exitY=0.5;exitDx=0;exitDy=0;entryX=0;entryY=0.5;entryDx=0;entryDy=0;endArrow=none;endFill=0;" parent="1" source="qr8y9DVa5IbGoocjL2IQ-58" target="qr8y9DVa5IbGoocjL2IQ-78" edge="1">
          <mxGeometry y="10" relative="1" as="geometry">
            <mxPoint x="105" y="360" as="sourcePoint" />
            <mxPoint x="190" y="410" as="targetPoint" />
            <mxPoint as="offset" />
          </mxGeometry>
        </mxCell>
        <mxCell id="hQRSNKuAg8Lqi-_8mM3O-79" value="&lt;h1&gt;AlteraÃ§Ã£o&lt;/h1&gt;&lt;p&gt;Removido o atributo &lt;b&gt;idVeiculo&lt;/b&gt; como chave primÃ¡ria, substituÃ­do pelo atributo &lt;b&gt;placa&lt;/b&gt;&lt;/p&gt;" style="text;html=1;spacing=5;spacingTop=-20;whiteSpace=wrap;overflow=hidden;rounded=0;" vertex="1" parent="1">
          <mxGeometry x="323" y="615" width="190" height="120" as="geometry" />
        </mxCell>
      </root>
    </mxGraphModel>
  </diagram>
</mxfile>
